<svg width="76" height="76" viewBox="0 0 76 76" fill="none" xmlns="http://www.w3.org/2000/svg">
<path fill-rule="evenodd" clip-rule="evenodd" d="M0 21.7158H2.81959V22.7158H1V57.8623H75V22.7158H72.7938V21.7158H76V58.8623H0V21.7158Z" fill="#4F4F4F"/>
<path fill-rule="evenodd" clip-rule="evenodd" d="M20.3514 17C16.6433 17 12.2297 17.543 8.75687 18.0822C7.0175 18.3522 5.50843 18.6223 4.43393 18.8248C3.89661 18.9261 3.46776 19.0106 3.17292 19.0698C3.02549 19.0994 2.91155 19.1227 2.83428 19.1386L2.74628 19.1569L2.72366 19.1616L2.71782 19.1628L2.71628 19.1632L2.71586 19.1633C2.71575 19.1633 2.71568 19.1633 2.81897 19.6525L2.71568 19.1633L2.31897 19.2471V19.6525V22.3018V24.951V25.1166V56.0796V56.6962L2.92226 56.5688L2.81897 56.0796L2.92231 56.5688L2.92259 56.5688L2.92384 56.5685L2.92912 56.5674L2.9506 56.5629L3.03623 56.5452C3.11188 56.5296 3.22413 56.5066 3.3698 56.4774C3.66115 56.4188 4.0861 56.3351 4.61919 56.2346C5.68552 56.0336 7.18375 55.7655 8.91029 55.4975C12.3693 54.9604 16.7219 54.4271 20.3514 54.4271C27.483 54.4271 33.6949 56.0063 37.3834 58.3074V58.9997L37.9119 58.6482L38.3839 58.9553V58.3374C42.039 56.0096 48.2793 54.4602 55.4159 54.4602C59.0454 54.4602 63.398 54.9935 66.857 55.5306C68.5836 55.7986 70.0818 56.0667 71.1481 56.2678C71.6812 56.3683 72.1062 56.452 72.3975 56.5105C72.5432 56.5397 72.6555 56.5627 72.7311 56.5783L72.8167 56.596L72.8382 56.6005L72.8435 56.6016L72.8447 56.6019L72.845 56.602L72.9484 56.1128L72.8451 56.602L73.4484 56.7293V56.1128V25.1166V24.951V22.3018V19.6525V19.2471L73.0517 19.1633L72.9484 19.6525C73.0517 19.1633 73.0516 19.1633 73.0515 19.1633L73.0511 19.1632L73.0495 19.1628L73.0437 19.1616L73.021 19.1569L72.9331 19.1386C72.8558 19.1227 72.7418 19.0994 72.5944 19.0698C72.2996 19.0106 71.8707 18.9261 71.3334 18.8248C70.2589 18.6223 68.7498 18.3522 67.0105 18.0822C63.5376 17.543 59.124 17 55.4159 17C48.1974 17 41.763 18.5874 37.8837 21.0433C34.0043 18.5874 27.5699 17 20.3514 17ZM38.3839 57.1672V26.9379V24.2887V21.9102C42.0402 19.5804 48.2813 18 55.4159 18C59.0454 18 63.398 18.5333 66.857 19.0703C68.5836 19.3384 70.0818 19.6065 71.1481 19.8075C71.6812 19.908 72.1062 19.9917 72.3975 20.0502L72.4484 20.0605V22.3018V24.951V25.1166V55.5009C72.1646 55.4444 71.7878 55.3707 71.3334 55.2851C70.2589 55.0825 68.7498 54.8125 67.0105 54.5424C63.5376 54.0032 59.124 53.4602 55.4159 53.4602C48.5013 53.4602 42.3039 54.8879 38.3839 57.1672ZM37.3834 21.9102C33.7271 19.5804 27.486 18 20.3514 18C16.7219 18 12.3693 18.5333 8.91029 19.0703C7.18375 19.3384 5.68552 19.6065 4.61919 19.8075C4.0861 19.908 3.66115 19.9917 3.3698 20.0502L3.31897 20.0605V22.3018V24.951V25.1166V55.4677C3.60277 55.4112 3.97956 55.3376 4.43393 55.252C5.50843 55.0494 7.0175 54.7794 8.75687 54.5093C12.2297 53.9701 16.6433 53.4271 20.3514 53.4271C27.2748 53.4271 33.4446 54.8873 37.3834 57.1427V26.9379V24.2887V21.9102Z" fill="#4F4F4F"/>
</svg>
