<svg width="60.00000000000001" height="89" xmlns="http://www.w3.org/2000/svg">
 <defs>
  <clipPath id="clip0_3080_1573">
   <rect id="svg_1" fill="white" height="89" width="60"/>
  </clipPath>
 </defs>
 <g>
  <title>background</title>
  <rect fill="none" id="canvas_background" height="402" width="582" y="-1" x="-1"/>
 </g>
 <g>
  <title>Layer 1</title>
  <g id="svg_2" clip-path="url(#clip0_3080_1573)">
   <path id="svg_3" fill="#4F4F4F" d="m60,60.308576l-60,0l0,-60.502l60,0l0,60.502zm-56.53386,-3.4951l53.06776,0l0,-53.51176l-53.06776,0l0,53.51176z"/>
   <path id="svg_4" fill="#4F4F4F" d="m60,88.806976l-60,0l0,-31.9931l60,0l0,31.9931zm-56.53386,-3.4951l53.06776,0l0,-25.0028l-53.06776,0l0,25.0028z"/>
   <path id="svg_9" fill="#4f4f4f" d="m11.506,21.037076l10.3875,0c4.4984,0 6.4433,2.2022 6.4433,4.8756c0,2.1913 -1.3582,3.4952 -2.8033,4.043c1.8146,0.5697 3.4879,1.9831 3.4879,4.3826c0,3.5499 -2.7056,5.6317 -7.3017,5.6317l-10.2246,0l0,-18.9329l0.0109,0zm9.4313,7.4175c2.0428,0 2.6947,-0.8107 2.6947,-1.9612c0,-1.4243 -1.0757,-2.005 -2.6512,-2.005l-4.9982,0l0,3.9662l4.9547,0zm-4.9547,8.0969l5.1503,0c1.7603,0 3.0859,-0.5149 3.0859,-2.3885c0,-1.512 -1.0214,-2.2899 -2.9989,-2.2899l-5.2373,0l0,4.6784z"/>
   <path id="svg_10" fill="#4F4F4F" d="m37.5728,39.969976l0,-6.7712c0,-0.252 -0.0761,-0.3834 -0.2282,-0.6135l-7.7689,-11.5482l5.4111,0c1.8363,2.9692 4.1506,6.5739 5.0525,8.3598c0.9562,-1.764 3.314,-5.3906 5.1612,-8.3598l4.9655,0l-7.8993,11.7344c-0.1086,0.1534 -0.1086,0.263 -0.1086,0.504l0,6.6945l-4.5853,0l0,0z"/>
  </g>
  <text font-weight="bold" stroke="#000" transform="matrix(0.4692607653655364,0,0,0.5425533034183381,0.7240863171661527,51.72572458194102) " xml:space="preserve" text-anchor="start" font-family="Helvetica, Arial, sans-serif" font-size="24" id="svg_11" y="46.830753" x="4.951646" stroke-width="0" fill="#4f4f4f">PROJECT</text>
 </g>
</svg>